<svg xmlns="http://www.w3.org/2000/svg" version="1.1" xmlns:xlink="http://www.w3.org/1999/xlink" xmlns:svgjs="http://svgjs.dev/svgjs" width="1500" height="935" viewBox="0 0 1500 935"><g transform="matrix(1,0,0,1,-0.9090909090908781,0.3785425101214628)"><svg viewBox="0 0 396 247" data-background-color="#f0e9e6" preserveAspectRatio="xMidYMid meet" height="935" width="1500" xmlns="http://www.w3.org/2000/svg" xmlns:xlink="http://www.w3.org/1999/xlink"><g id="tight-bounds" transform="matrix(1,0,0,1,0.2400000000000091,-0.09999999999999432)"><svg viewBox="0 0 395.52 247.2" height="247.2" width="395.52"><g><svg></svg></g><g><svg viewBox="0 0 395.52 247.2" height="247.2" width="395.52"><g transform="matrix(1,0,0,1,75.54432000000001,84.11742129122169)"><svg viewBox="0 0 244.43135999999996 78.96515741755661" height="78.96515741755661" width="244.43135999999996"><g><svg viewBox="0 0 244.43135999999996 78.96515741755661" height="78.96515741755661" width="244.43135999999996"><g><svg viewBox="0 0 244.43135999999996 78.96515741755661" height="78.96515741755661" width="244.43135999999996"><g><svg viewBox="0 0 244.43135999999996 78.96515741755661" height="78.96515741755661" width="244.43135999999996"><g id="textblocktransform"><svg viewBox="0 0 244.43135999999996 78.96515741755661" height="78.96515741755661" width="244.43135999999996" id="textblock"><g><svg viewBox="0 0 244.43135999999996 78.96515741755661" height="78.96515741755661" width="244.43135999999996"><g transform="matrix(1,0,0,1,0,0)"><svg width="244.43135999999996" viewBox="0.7892515901280002 -36.927026993667 115.37262340987199 37.277026993667" height="78.96515741755661" data-palette-color="#7f8cd9"><path d="M26.5-26.35L26.5-26.35Q26.75-24.2 26.38-22.48 26-20.75 25.6-19.6L25.6-19.6Q24.75-17.4 23.3-15.58 21.85-13.75 20.13-12.4 18.4-11.05 16.55-10.15 14.7-9.25 13.1-8.9L13.1-8.9Q12.7-8.8 12.28-8.72 11.85-8.65 11.9-8.75L11.9-8.75Q11.8-8.85 12.2-9.05 12.6-9.25 12.95-9.4L12.95-9.4Q15.75-10.75 18.2-12.6 20.65-14.45 22.4-17.05L22.4-17.05Q23.25-18.3 23.9-19.83 24.55-21.35 24.8-23 25.05-24.65 24.8-26.38 24.55-28.1 23.65-29.75L23.65-29.75Q22.5-31.85 20.7-33.18 18.9-34.5 16.75-35.18 14.6-35.85 12.33-35.98 10.05-36.1 7.95-35.75L7.95-35.75Q7.65-35.7 7.6-35.7 7.55-35.7 7.45-35.75L7.45-35.75Q7.45-35.85 7.63-35.9 7.8-35.95 7.95-36.05L7.95-36.05Q8.85-36.45 10.33-36.73 11.8-37 13.6-36.9 15.4-36.8 17.43-36.23 19.45-35.65 21.5-34.3L21.5-34.3Q23.55-32.95 24.88-30.78 26.2-28.6 26.5-26.35ZM23.35-28.45L23.35-28.45Q23.8-27.25 23.88-26.05 23.95-24.85 23.78-23.73 23.6-22.6 23.23-21.58 22.85-20.55 22.35-19.75L22.35-19.75Q22.25-19.65 22.1-19.43 21.95-19.2 21.8-18.98 21.65-18.75 21.5-18.63 21.35-18.5 21.3-18.55L21.3-18.55Q21.25-18.55 21.33-18.75 21.4-18.95 21.48-19.2 21.55-19.45 21.65-19.65 21.75-19.85 21.8-19.95L21.8-19.95Q22.25-20.8 22.4-22.03 22.55-23.25 22.48-24.55 22.4-25.85 22.08-27.08 21.75-28.3 21.15-29.1L21.15-29.1Q20.95-29.4 20.35-30.03 19.75-30.65 18.75-31.35 17.75-32.05 16.4-32.65 15.05-33.25 13.35-33.4L13.35-33.4Q11.7-33.55 10.03-33.48 8.35-33.4 6.88-33.15 5.4-32.9 4.28-32.55 3.15-32.2 2.6-31.9L2.6-31.9Q2.35-31.75 2.13-31.7 1.9-31.65 1.9-31.7L1.9-31.7Q1.85-31.8 2-31.95 2.15-32.1 2.25-32.2L2.25-32.2Q3.05-33 4.67-33.7 6.3-34.4 8.28-34.83 10.25-35.25 12.33-35.27 14.4-35.3 16.05-34.75L16.05-34.75Q17.1-34.4 18.23-33.83 19.35-33.25 20.33-32.45 21.3-31.65 22.1-30.65 22.9-29.65 23.35-28.45ZM6.25-10.15L6.25-10.15Q6.65-12.4 7.33-14.73 8-17.05 8.7-19.45L8.7-19.45Q9.4-21.7 10-24.05 10.6-26.4 10.7-29.1L10.7-29.1Q10.7-29.35 10.73-29.35 10.75-29.35 10.8-29.35L10.8-29.35Q10.85-29.35 10.95-29.05L10.95-29.05Q11.5-27.8 11.38-25.73 11.25-23.65 10.8-21.43 10.35-19.2 9.78-17.13 9.2-15.05 8.9-13.85L8.9-13.85Q8.65-12.95 8.45-12.18 8.25-11.4 8-10.55L8-10.55Q9.8-11.75 11.53-12.98 13.25-14.2 14.75-15.58 16.25-16.95 17.43-18.5 18.6-20.05 19.3-21.85L19.3-21.85Q20.45-24.85 19.23-27.28 18-29.7 14.6-30.75L14.6-30.75Q12.05-31.5 9.45-31.5L9.45-31.5Q9.9-29.8 9.88-27.8 9.85-25.8 9.45-24.45L9.45-24.45Q8.75-21.8 7.75-19.03 6.75-16.25 5.75-13.85L5.75-13.85Q5.7-13.75 5.5-13.35 5.3-12.95 5.15-13L5.15-13Q5.05-13 5.1-13.43 5.15-13.85 5.15-13.95L5.15-13.95Q5.2-14.55 5.35-15.4 5.5-16.25 5.65-17.15 5.8-18.05 6-18.93 6.2-19.8 6.45-20.4L6.45-20.4Q6.55-20.75 6.85-22 7.15-23.25 7.45-24.9 7.75-26.55 8-28.33 8.25-30.1 8.35-31.5L8.35-31.5Q7.95-31.5 7.75-31.45L7.75-31.45Q7.8-29.4 7.38-27.28 6.95-25.15 6.3-22.98 5.65-20.8 4.9-18.6 4.15-16.4 3.65-14.25L3.65-14.25Q3.25-12.6 3.05-10.75 2.85-8.9 2.9-7.05 2.95-5.2 3.35-3.43 3.75-1.65 4.55-0.15L4.55-0.15Q4.7 0.1 4.58 0.08 4.45 0.05 4.3-0.05L4.3-0.05Q2.95-1.6 2.3-3.45 1.65-5.3 1.5-7.28 1.35-9.25 1.63-11.3 1.9-13.35 2.35-15.3L2.35-15.3Q2.85-17.4 3.5-19.5 4.15-21.6 4.75-23.63 5.35-25.65 5.88-27.58 6.4-29.5 6.65-31.35L6.65-31.35Q5.2-31.15 3.85-30.78 2.5-30.4 1.25-30L1.25-30Q0.85-29.9 0.8-30L0.8-30Q0.75-30.1 0.93-30.2 1.1-30.3 1.15-30.35L1.15-30.35Q2.55-31.2 4.28-31.78 6-32.35 7.85-32.58 9.7-32.8 11.65-32.68 13.6-32.55 15.5-32L15.5-32Q17.5-31.4 18.8-30.15 20.1-28.9 20.73-27.33 21.35-25.75 21.25-23.98 21.15-22.2 20.35-20.55L20.35-20.55Q19.3-18.45 17.7-16.73 16.1-15 14.13-13.55 12.15-12.1 9.93-10.88 7.7-9.65 5.5-8.55L5.5-8.55Q5.4-8.5 4.95-8.33 4.5-8.15 4.45-8.25L4.45-8.25Q4.45-8.3 4.73-8.53 5-8.75 5.3-8.95L5.3-8.95Q6.05-9.35 6.25-10.15ZM9.6-9.55L9.6-9.55Q10.35-9.95 11.48-10.6 12.6-11.25 13.65-11.85 14.7-12.45 15.48-12.85 16.25-13.25 16.3-13.15L16.3-13.15Q16.35-13.1 16.13-12.83 15.9-12.55 15.55-12.23 15.2-11.9 14.85-11.6 14.5-11.3 14.3-11.15L14.3-11.15Q13.3-10.45 12.33-9.9 11.35-9.35 10.35-8.9L10.35-8.9Q9.5-8.5 8.63-8.2 7.75-7.9 6.85-7.55L6.85-7.55Q6.6-6.85 6.43-6.15 6.25-5.45 6.1-4.85L6.1-4.85Q6.05-4.6 5.98-4.35 5.9-4.1 5.85-4.1L5.85-4.1Q5.75-4.15 5.73-4.48 5.7-4.8 5.7-5L5.7-5Q5.7-5.45 5.7-6.08 5.7-6.7 5.75-7.15L5.75-7.15Q5.4-7.05 5.08-6.85 4.75-6.65 4.8-6.25L4.8-6.25Q4.8-4.75 4.95-3.55L4.95-3.55Q5.2-1.85 5.85-0.3L5.85-0.3Q5.9-0.2 5.98-0.05 6.05 0.1 6 0.15L6 0.15Q5.9 0.2 5.55-0.05L5.55-0.05Q5-0.75 4.6-1.43 4.2-2.1 3.95-3.5L3.95-3.5Q3.85-3.95 3.83-4.7 3.8-5.45 3.85-6.1L3.85-6.1Q3.85-6.5 4-6.8 4.15-7.1 4.65-7.35L4.65-7.35Q4.95-7.5 5.68-7.83 6.4-8.15 7.2-8.5 8-8.85 8.68-9.15 9.35-9.45 9.6-9.55ZM33.7-16.65L33.7-16.65Q33.3-14.95 32.57-13.08 31.85-11.2 30.95-9.6L30.95-9.6Q30.95-9.5 30.82-9.28 30.7-9.05 30.5-9.05L30.5-9.05Q30.4-9.05 30.37-9.35 30.35-9.65 30.4-9.75L30.4-9.75Q30.4-10.55 30.6-11.88 30.8-13.2 31.1-14.05L31.1-14.05Q31.2-14.35 31.42-15.5 31.65-16.65 31.82-18.07 32-19.5 32.02-20.83 32.05-22.15 31.7-22.8L31.7-22.8 31.7-23Q31.9-23.15 32.15-22.9L32.15-22.9Q32.8-22.35 33.17-21.55 33.55-20.75 33.72-19.88 33.9-19 33.87-18.15 33.85-17.3 33.7-16.65ZM35.65-16.85L35.65-16.85Q36.2-17.55 36.7-17.85 37.2-18.15 37.7-18.35L37.7-18.35Q37.75-18.35 37.95-18.4 38.15-18.45 38.25-18.3L38.25-18.3Q38.35-18.15 38.2-17.95 38.05-17.75 37.95-17.65L37.95-17.65Q37.6-17.3 37.17-16.88 36.75-16.45 36.4-16.05L36.4-16.05Q35.9-15.5 35.6-14.78 35.3-14.05 35.15-13.3L35.15-13.3Q36-14.2 36.77-15 37.55-15.8 38.45-16.5L38.45-16.5Q39.6-17.35 40.45-18.7 41.3-20.05 41.65-22.65L41.65-22.65Q41.75-22.9 41.9-22.95 42.05-23 42.05-22.6L42.05-22.6Q42.2-19.7 41.45-18 40.7-16.3 39.2-15.15L39.2-15.15Q38.4-14.55 37.6-13.85 36.8-13.15 36.07-12.3 35.35-11.45 34.75-10.3 34.15-9.15 33.7-7.65L33.7-7.65Q33.35-6.5 33-5.48 32.65-4.45 32.25-3.5L32.25-3.5Q32.15-3.15 31.95-3.15L31.95-3.15Q31.8-3.2 31.8-3.65L31.8-3.65Q31.55-6.05 32.12-8.43 32.7-10.8 33.5-13.35L33.5-13.35Q33.85-14.6 34.32-15.85 34.8-17.1 34.75-18.7L34.75-18.7Q34.75-19.25 35.2-19.85 35.65-20.45 36.3-20.98 36.95-21.5 37.65-21.88 38.35-22.25 38.85-22.4L38.85-22.4Q39.3-22.55 39.3-22.35 39.3-22.15 39-21.85L39-21.85Q37.95-20.9 36.87-19.6 35.8-18.3 35.65-16.85ZM31.3-0.05L31.3-0.05Q31.25 0 31.22-0.03 31.2-0.05 30.95-0.2L30.95-0.2Q29.45-1.3 28.6-2.6 27.75-3.9 27.37-5.28 27-6.65 27.05-8.03 27.1-9.4 27.4-10.7L27.4-10.7Q27.8-12.45 28.37-14.18 28.95-15.9 29.45-17.53 29.95-19.15 30.2-20.73 30.45-22.3 30.2-23.75L30.2-23.75Q30.2-23.85 30.35-23.9L30.35-23.9Q30.4-23.9 30.45-23.83 30.5-23.75 30.55-23.7L30.55-23.7Q31.5-22.1 31.5-20.43 31.5-18.75 31.05-17.03 30.6-15.3 29.92-13.53 29.25-11.75 28.85-9.95L28.85-9.95Q28.35-7.65 28.77-5.05 29.2-2.45 31.1-0.4L31.1-0.4Q31.2-0.25 31.3-0.2 31.4-0.15 31.3-0.05ZM32.8 0L32.8 0Q32.7 0 32.6-0.05L32.6-0.05 32.4-0.15Q31.7-0.6 31.15-1.13 30.6-1.65 30.2-2.65L30.2-2.65Q30.05-3 29.95-3.58 29.85-4.15 29.82-4.65 29.8-5.15 29.87-5.5 29.95-5.85 30.15-5.8L30.15-5.8Q30.3-5.8 30.47-5.4 30.65-5 30.75-4.6L30.75-4.6Q30.85-4.05 30.97-3.55 31.1-3.05 31.3-2.65L31.3-2.65Q31.85-1.4 32.75-0.25L32.75-0.25Q32.85 0 32.8 0ZM40.95-22.45L40.95-22.45Q40.95-21.4 40.35-20.6 39.75-19.8 38.9-19.25L38.9-19.25Q38.75-19.15 38.7-19.28 38.65-19.4 38.65-19.45L38.65-19.45Q38.65-19.75 38.9-20.18 39.15-20.6 39.47-21.08 39.8-21.55 40.1-22.05 40.4-22.55 40.5-22.95L40.5-22.95Q40.65-23.2 40.8-22.95 40.95-22.7 40.95-22.45ZM49.2-16.5L49.2-16.5Q49.35-17.15 49.37-18 49.4-18.85 49.25-19.75 49.1-20.65 48.72-21.48 48.35-22.3 47.75-22.9L47.75-22.9Q47.45-23.1 47.4-23.1L47.4-23.1Q47.2-23.1 47.4-22.8L47.4-22.8Q47.7-22.15 47.62-20.78 47.55-19.4 47.3-17.93 47.05-16.45 46.77-15.28 46.5-14.1 46.45-13.85L46.45-13.85Q46.1-12.95 45.82-11.6 45.55-10.25 45.55-9.4L45.55-9.4Q45.5-9.3 45.5-9 45.5-8.7 45.65-8.65L45.65-8.65Q45.7-8.65 45.85-8.9 46-9.15 46.1-9.25L46.1-9.25Q47-10.85 47.82-12.75 48.65-14.65 49.2-16.5ZM49.4-8.95L49.4-8.95Q49.6-9.85 50.05-11.28 50.5-12.7 50.8-14.23 51.1-15.75 51.1-17.23 51.1-18.7 50.5-19.65L50.5-19.65Q50.3-19.85 50.2-19.85L50.2-19.85Q50.1-19.85 50.15-19.65L50.15-19.65Q50.15-17.75 49.72-16.13 49.3-14.5 48.8-12.95L48.8-12.95Q47.95-10.4 47.25-7.98 46.55-5.55 46.65-3L46.65-3Q46.65-2.85 46.67-2.68 46.7-2.5 46.85-2.5L46.85-2.5Q46.95-2.5 47-2.6 47.05-2.7 47.15-2.9L47.15-2.9Q47.65-4.1 48.3-5.73 48.95-7.35 49.4-8.95ZM45.85 0L45.85 0Q44.9-1 44.4-2.23 43.9-3.45 43.7-4.73 43.5-6 43.6-7.3 43.7-8.6 44-9.75L44-9.75Q44.45-11.55 45.15-13.35 45.85-15.15 46.35-16.93 46.85-18.7 46.92-20.43 47-22.15 46.2-23.8L46.2-23.8Q46.05-24.05 46-24.05L46-24.05Q45.95-24.05 45.95-23.98 45.95-23.9 46-23.85L46-23.85Q46.15-22.35 45.8-20.75 45.45-19.15 44.9-17.48 44.35-15.8 43.67-14.03 43-12.25 42.55-10.4L42.55-10.4Q42.2-9.05 42.07-7.65 41.95-6.25 42.25-4.88 42.55-3.5 43.35-2.25 44.15-1 45.65 0.05L45.65 0.05Q45.75 0.15 45.9 0.18 46.05 0.2 45.85 0ZM46.25-1.9L46.25-1.9Q46.1-2.3 45.92-2.9 45.75-3.5 45.65-4.05L45.65-4.05Q45.55-4.25 45.4-4.8 45.25-5.35 45.15-5.35L45.15-5.35Q44.95-5.35 44.87-5 44.8-4.65 44.8-4.13 44.8-3.6 44.87-3.03 44.95-2.45 45.1-2.05L45.1-2.05Q45.4-1.05 45.82-0.65 46.25-0.25 46.95 0L46.95 0Q47.25 0.15 47.4 0.15L47.4 0.15Q47.45 0.15 47.42 0.08 47.4 0 47.35 0L47.35 0Q47-0.4 46.72-0.85 46.45-1.3 46.25-1.9ZM50.15-27.75L50.15-27.75Q49.9-27.75 49.37-27.83 48.85-27.9 48.85-28.3L48.85-28.3Q48.85-28.45 49.3-28.68 49.75-28.9 50.3-29.33 50.85-29.75 51.3-30.43 51.75-31.1 51.75-32.15L51.75-32.15Q51.75-33.45 51.25-34.1L51.25-34.1Q51.15-34.25 51-34.43 50.85-34.6 50.9-34.65L50.9-34.65Q51-34.65 51.12-34.58 51.25-34.5 51.3-34.45L51.3-34.45Q52.3-33.9 52.82-33.02 53.35-32.15 53.35-31.35L53.35-31.35Q53.35-29.75 52.6-28.75 51.85-27.75 50.15-27.75ZM48.3-29.75L48.3-29.75Q47.7-29.5 47.7-30.05L47.7-30.05Q47.7-30.45 48-30.83 48.3-31.2 48.57-31.65 48.85-32.1 48.95-32.68 49.05-33.25 48.65-34.1L48.65-34.1Q48.55-34.35 48.3-34.65 48.05-34.95 48.15-35L48.15-35Q48.25-35.05 48.57-34.93 48.9-34.8 49-34.75L49-34.75Q49.85-34.35 50.27-33.55 50.7-32.75 50.7-32.15L50.7-32.15Q50.7-31.2 49.92-30.58 49.15-29.95 48.3-29.75ZM46.85-32.45L46.85-32.45Q46.85-32.7 47-33.02 47.15-33.35 47.5-33.35L47.5-33.35Q47.75-33.35 47.9-33.02 48.05-32.7 48.05-32.45L48.05-32.45Q48.05-32.25 47.9-31.93 47.75-31.6 47.5-31.6L47.5-31.6Q47.15-31.6 47-31.9 46.85-32.2 46.85-32.45ZM66.24-22.2L66.24-22.2Q66.29-22.15 66.29-21.98 66.29-21.8 66.24-21.7L66.24-21.7Q65.79-20.25 64.69-19.65 63.59-19.05 62.74-19.05L62.74-19.05Q61.69-19.05 60.59-19.23 59.49-19.4 58.49-20.15L58.49-20.15Q58.39-20.25 58.24-20.35 58.09-20.45 58.09-20.55L58.09-20.55Q58.09-20.7 58.24-20.78 58.39-20.85 58.49-20.9L58.49-20.9Q58.94-21 59.67-21.08 60.39-21.15 61.09-21.05L61.09-21.05Q61.59-20.95 62.29-20.95 62.99-20.95 63.72-21.05 64.44-21.15 65.04-21.38 65.64-21.6 65.94-22.05L65.94-22.05Q66.09-22.25 66.24-22.2ZM66.59-23.75L66.59-23.75 66.44-23.5Q65.59-22.4 64.64-22.08 63.69-21.75 62.64-21.8 61.59-21.85 60.52-22.08 59.44-22.3 58.39-22.35L58.39-22.35Q56.99-22.4 55.59-21.5 54.19-20.6 53.19-18.35L53.19-18.35Q53.04-18.05 52.99-18.23 52.94-18.4 52.99-18.55L52.99-18.55Q53.39-20.05 53.94-21.05 54.49-22.05 55.12-22.68 55.74-23.3 56.44-23.6 57.14-23.9 57.89-24L57.89-24Q58.74-26.85 59.22-29.58 59.69-32.3 59.29-34.75L59.29-34.75Q59.29-34.95 59.29-34.95L59.29-34.95Q59.39-35 59.49-34.9 59.59-34.8 59.59-34.75L59.59-34.75Q60.69-32.35 60.49-29.63 60.29-26.9 59.49-23.9L59.49-23.9Q59.74-23.85 59.89-23.85 60.04-23.85 60.24-23.85L60.24-23.85Q60.49-25.15 60.72-26.63 60.94-28.1 61.07-29.45 61.19-30.8 61.14-31.9 61.09-33 60.79-33.55L60.79-33.55Q60.64-34 60.79-34L60.79-34Q60.89-34 60.94-33.9 60.99-33.8 61.09-33.7L61.09-33.7Q61.79-33 62.19-31.8 62.59-30.6 62.74-29.25 62.89-27.9 62.84-26.58 62.79-25.25 62.54-24.25L62.54-24.25 62.34-23.45Q62.49-23.35 62.64-23.35 62.79-23.35 62.94-23.3L62.94-23.3Q63.24-24.8 63.47-26.3 63.69-27.8 63.64-29.45L63.64-29.45Q63.64-29.8 63.69-29.8L63.69-29.8Q63.79-29.8 63.84-29.65 63.89-29.5 63.94-29.4L63.94-29.4Q64.54-28.3 64.52-26.65 64.49-25 64.24-23.15L64.24-23.15Q65.34-23.15 66.34-23.75L66.34-23.75Q66.59-23.9 66.59-23.75ZM56.24-20.35L56.24-20.35Q56.24-20.1 55.97-19.85 55.69-19.6 55.54-19.5L55.54-19.5Q55.29-19.3 54.97-19.03 54.64-18.75 54.39-18.45L54.39-18.45Q54.14-18.05 53.92-17.75 53.69-17.45 53.54-16.9L53.54-16.9Q53.49-16.8 53.42-16.73 53.34-16.65 53.29-16.7L53.29-16.7Q53.14-16.85 53.29-17.35L53.29-17.35Q53.49-18.1 53.69-18.57 53.89-19.05 54.44-19.6L54.44-19.6Q54.64-19.8 54.94-20 55.24-20.2 55.54-20.35 55.84-20.5 56.04-20.5 56.24-20.5 56.24-20.35ZM60.14-0.25L60.14-0.25Q60.39-0.35 60.34-0.2 60.29-0.05 60.19 0L60.19 0Q59.29 0.3 58.29-0.1 57.29-0.5 56.44-1.35 55.59-2.2 54.99-3.33 54.39-4.45 54.24-5.55L54.24-5.55Q53.99-7.9 54.19-10.1 54.39-12.3 54.94-14.45L54.94-14.45 55.79-17.6Q55.49-17.6 55.19-17.75L55.19-17.75Q54.84-17.85 54.84-18L54.84-18Q54.84-18.1 55.19-18.3L55.19-18.3Q56.59-19 58.02-18.9 59.44-18.8 60.89-18.55L60.89-18.55Q61.79-18.4 62.72-18.32 63.64-18.25 64.74-18.7L64.74-18.7Q64.84-18.8 64.94-18.75L64.94-18.75Q65.04-18.65 64.89-18.4L64.89-18.4Q64.59-17.75 64.04-17.45 63.49-17.15 62.89-17L62.89-17Q62.49-15.7 62.19-14.68 61.89-13.65 61.69-12.95L61.69-12.95Q61.14-10.55 60.42-8.08 59.69-5.6 59.44-3.9L59.44-3.9Q59.34-3.35 59.24-3.3L59.24-3.3Q59.14-3.25 59.04-3.5 58.94-3.75 58.89-3.9L58.89-3.9Q58.69-5.35 58.82-6.93 58.94-8.5 59.29-10.15 59.64-11.8 60.09-13.48 60.54-15.15 61.04-16.85L61.04-16.85Q60.79-16.85 60.54-16.85 60.29-16.85 60.04-16.9L60.04-16.9Q59.64-15.85 59.22-14.83 58.79-13.8 58.39-12.9L58.39-12.9Q58.34-12.8 58.17-12.43 57.99-12.05 57.89-12.05L57.89-12.05Q57.69-12.1 57.74-12.53 57.79-12.95 57.79-13.1L57.79-13.1Q57.89-13.85 58.12-14.85 58.34-15.85 58.54-17L58.54-17Q58.29-17.05 57.99-17.07 57.69-17.1 57.39-17.2L57.39-17.2Q57.09-16.2 56.82-15.25 56.54-14.3 56.29-13.35L56.29-13.35Q55.89-11.6 55.69-9.63 55.49-7.65 55.69-5.55L55.69-5.55Q55.79-4.6 56.22-3.6 56.64-2.6 57.24-1.8 57.84-1 58.62-0.55 59.39-0.1 60.14-0.25ZM60.59-1.35L60.59-1.35Q60.84-1.55 60.89-1.38 60.94-1.2 60.69-1.05L60.69-1.05Q60.49-0.9 60.17-0.83 59.84-0.75 59.44-0.8 59.04-0.85 58.59-1.1 58.14-1.35 57.74-1.9L57.74-1.9Q57.39-2.35 57.17-3.2 56.94-4.05 56.84-4.88 56.74-5.7 56.79-6.3 56.84-6.9 57.04-6.9L57.04-6.9Q57.29-6.9 57.42-6.2 57.54-5.5 57.64-5.05L57.64-5.05Q57.84-4.25 58.19-3.4 58.54-2.55 58.94-2.05L58.94-2.05Q59.44-1.4 59.84-1.28 60.24-1.15 60.59-1.35ZM83.99-17.6L83.99-17.6Q83.59-15.6 82.64-13.6 81.69-11.6 80.84-9.85L80.84-9.85Q80.79-9.75 80.62-9.5 80.44-9.25 80.34-9.25L80.34-9.25Q80.19-9.3 80.19-9.58 80.19-9.85 80.19-9.95L80.19-9.95Q80.24-10.4 80.37-11.03 80.49-11.65 80.59-12.33 80.69-13 80.82-13.63 80.94-14.25 81.09-14.75L81.09-14.75Q81.54-16.45 81.84-17.68 82.14-18.9 82.29-19.9 82.44-20.9 82.47-21.8 82.49-22.7 82.34-23.75L82.34-23.75Q82.29-24.15 82.39-24.25L82.39-24.25Q82.49-24.3 82.64-24.15 82.79-24 82.89-23.85L82.89-23.85Q83.74-22.5 84.04-20.88 84.34-19.25 83.99-17.6ZM84.99-21.25L85.19-20.95Q85.84-20 85.84-18.45 85.84-16.9 85.54-15.28 85.24-13.65 84.79-12.15 84.34-10.65 84.14-9.75L84.14-9.75Q83.74-8 83.04-6.25 82.34-4.5 81.84-3.15L81.84-3.15Q81.79-3 81.69-2.83 81.59-2.65 81.49-2.65L81.49-2.65Q81.39-2.65 81.39-2.85 81.39-3.05 81.39-3.2L81.39-3.2Q81.24-5.95 81.99-8.58 82.74-11.2 83.59-13.9L83.59-13.9Q84.09-15.55 84.54-17.28 84.99-19 84.94-21.05L84.94-21.05Q84.94-21.25 84.99-21.25L84.99-21.25ZM80.49-21.8L80.49-21.8Q77.44-20.55 75.32-18.23 73.19-15.9 72.04-13L72.04-13Q71.54-11.7 71.29-10.68 71.04-9.65 70.89-8.45L70.89-8.45Q70.84-8.2 71.04-7.95 71.24-7.7 71.44-7.95L71.44-7.95Q72.34-9.05 73.74-10.75 75.14-12.45 76.54-14.35 77.94-16.25 79.07-18.2 80.19-20.15 80.49-21.8ZM77.14-4.85L77.14-4.85Q76.39-3.8 75.69-2.9 74.99-2 74.14-1.33 73.29-0.65 72.24-0.25 71.19 0.15 69.84 0.2L69.84 0.2Q67.59 0.3 66.42-0.95 65.24-2.2 64.79-4 64.34-5.8 64.47-7.73 64.59-9.65 64.99-10.9L64.99-10.9Q65.54-12.65 66.32-14.23 67.09-15.8 67.97-17.07 68.84-18.35 69.77-19.28 70.69-20.2 71.59-20.7L71.59-20.7Q71.64-20.7 71.82-20.8 71.99-20.9 71.99-20.75L71.99-20.75Q72.04-20.75 71.94-20.6 71.84-20.45 71.74-20.35L71.74-20.35Q69.14-17.65 67.62-14.25 66.09-10.85 65.89-7.25L65.89-7.25Q65.84-6.35 65.97-5.3 66.09-4.25 66.47-3.33 66.84-2.4 67.54-1.78 68.24-1.15 69.44-1.15L69.44-1.15Q70.39-1.15 71.19-1.48 71.99-1.8 72.69-2.33 73.39-2.85 73.97-3.48 74.54-4.1 74.99-4.65L74.99-4.65Q75.99-5.9 76.84-7.25L76.84-7.25Q76.84-8.25 76.97-9.2 77.09-10.15 77.34-11.1L77.34-11.1Q77.49-11.8 77.62-12.23 77.74-12.65 77.87-13.03 77.99-13.4 78.12-13.83 78.24-14.25 78.49-14.95L78.49-14.95Q77.69-13.55 76.92-12.33 76.14-11.1 75.27-9.98 74.39-8.85 73.47-7.78 72.54-6.7 71.44-5.6L71.44-5.6Q70.59-4.75 70.04-5.05 69.49-5.35 69.39-6.45L69.39-6.45Q69.29-8.15 69.57-9.75 69.84-11.35 70.54-13.1L70.54-13.1Q71.19-14.7 72.17-16.2 73.14-17.7 74.42-18.93 75.69-20.15 77.24-21.03 78.79-21.9 80.54-22.2L80.54-22.2Q80.64-22.75 80.72-23.15 80.79-23.55 80.84-23.95L80.84-23.95Q80.94-24.5 80.94-24.5L80.94-24.5Q81.04-24.55 81.17-24.4 81.29-24.25 81.39-24L81.39-24Q81.99-22.35 81.79-20.7 81.59-19.05 81.07-17.35 80.54-15.65 79.84-13.88 79.14-12.1 78.69-10.3L78.69-10.3Q78.09-7.75 78.37-5.03 78.64-2.3 80.49-0.1L80.49-0.1Q80.64 0.1 80.64 0.1L80.64 0.1Q80.59 0.15 80.34 0L80.34 0Q78.89-0.9 78.17-2.18 77.44-3.45 77.14-4.85ZM78.89-22.55L78.89-22.55Q78.99-22.45 78.87-22.4 78.74-22.35 78.34-22.25L78.34-22.25Q77.69-22.05 76.77-21.5 75.84-20.95 74.82-20.1 73.79-19.25 72.79-18.13 71.79-17 71.04-15.7L71.04-15.7Q70.29-14.35 69.77-13.05 69.24-11.75 68.92-10.68 68.59-9.6 68.44-8.83 68.29-8.05 68.29-7.75L68.29-7.75Q68.29-7 68.29-6.18 68.29-5.35 68.49-4.7 68.69-4.05 69.19-3.7 69.69-3.35 70.69-3.5L70.69-3.5Q70.74-3.5 70.94-3.58 71.14-3.65 71.34-3.73 71.54-3.8 71.72-3.85 71.89-3.9 71.94-3.9L71.94-3.9Q71.99-3.8 71.87-3.65 71.74-3.5 71.54-3.33 71.34-3.15 71.17-3 70.99-2.85 70.94-2.8L70.94-2.8Q69.69-2.05 68.84-2.35 67.99-2.65 67.52-3.48 67.04-4.3 66.87-5.43 66.69-6.55 66.74-7.45L66.74-7.45Q66.84-9.2 67.29-10.93 67.74-12.65 68.44-14.4L68.44-14.4Q68.99-15.75 70.09-17.18 71.19-18.6 72.57-19.8 73.94-21 75.44-21.78 76.94-22.55 78.34-22.6L78.34-22.6Q78.84-22.6 78.89-22.55ZM81.84-0.1L81.84-0.1Q81.94 0.05 81.89 0.1L81.89 0.1Q81.74 0.1 81.49 0L81.49 0Q81.34-0.1 80.69-0.6 80.04-1.1 79.74-2.2L79.74-2.2Q79.64-2.6 79.57-3.23 79.49-3.85 79.49-4.4 79.49-4.95 79.57-5.35 79.64-5.75 79.79-5.75L79.79-5.75Q79.94-5.75 80.12-5.15 80.29-4.55 80.34-4.4L80.34-4.4Q80.49-3.7 80.62-3.18 80.74-2.65 80.89-2.2L80.89-2.2Q81.09-1.65 81.42-0.95 81.74-0.25 81.84-0.1ZM99.69-12.65L99.69-12.65Q98.99-9.65 98.74-6.4 98.49-3.15 99.14-0.1L99.14-0.1Q99.19 0 99.11 0.13 99.04 0.25 98.94 0L98.94 0Q98.09-1.65 97.76-3.35 97.44-5.05 97.44-6.73 97.44-8.4 97.69-10.1 97.94-11.8 98.34-13.45L98.34-13.45Q98.39-13.65 98.54-14.28 98.69-14.9 98.76-15.53 98.84-16.15 98.74-16.5 98.64-16.85 98.14-16.5L98.14-16.5Q96.99-15.65 96.01-14.38 95.04-13.1 94.44-11.9L94.44-11.9Q94.39-11.8 94.21-11.33 94.04-10.85 93.86-10.3 93.69-9.75 93.54-9.22 93.39-8.7 93.34-8.55L93.34-8.55Q92.94-7 92.34-5.6 91.74-4.2 91.34-3L91.34-3Q91.19-2.5 91.14-2.55L91.14-2.55Q90.89-2.55 90.89-3L90.89-3Q90.64-5.45 91.31-7.73 91.99-10 92.79-12.4L92.79-12.4Q93.29-13.95 93.71-15.48 94.14-17 94.09-18.85L94.09-18.85Q94.04-20.15 95.06-21.4 96.09-22.65 98.14-23.5L98.14-23.5Q99.34-24 100.39-23.95 101.44-23.9 102.34-23.5 103.24-23.1 103.94-22.35 104.64-21.6 105.09-20.7L105.09-20.7Q105.39-21.25 105.99-21.88 106.59-22.5 107.41-22.95 108.24-23.4 109.26-23.63 110.29-23.85 111.54-23.65L111.54-23.65Q112.44-23.5 113.11-23.05 113.79-22.6 114.31-22.03 114.84-21.45 115.14-20.85 115.44-20.25 115.59-19.85L115.59-19.85Q116.14-18.2 116.16-16.15 116.19-14.1 115.74-12.45L115.74-12.45Q114.99-9.75 113.96-7.65 112.94-5.55 112.59-3.9L112.59-3.9Q112.44-3.35 112.39-3.35L112.39-3.35Q112.19-3.35 112.16-3.55 112.14-3.75 112.09-3.95L112.09-3.95Q111.99-5 112.36-6.63 112.74-8.25 113.24-10.13 113.74-12 114.14-13.95 114.54-15.9 114.49-17.57 114.44-19.25 113.74-20.5 113.04-21.75 111.34-22.2L111.34-22.2Q109.99-22.55 108.96-22.23 107.94-21.9 107.24-21.5L107.24-21.5Q106.19-20.8 105.89-20.03 105.59-19.25 105.59-18.55L105.59-18.55Q106.44-20.1 107.84-21.03 109.24-21.95 111.14-21.35L111.14-21.35Q112.39-20.95 112.91-19.85 113.44-18.75 113.49-17.4 113.54-16.05 113.21-14.7 112.89-13.35 112.44-12.45L112.44-12.45Q112.39-12.35 112.19-11.98 111.99-11.6 111.74-11.65L111.74-11.65Q111.69-11.65 111.71-12.05 111.74-12.45 111.74-12.65L111.74-12.65Q111.89-13.25 111.94-14.05 111.99-14.85 111.96-15.7 111.94-16.55 111.84-17.35 111.74-18.15 111.54-18.7L111.54-18.7Q111.29-19.4 110.76-19.63 110.24-19.85 109.64-19.75 109.04-19.65 108.46-19.35 107.89-19.05 107.49-18.7L107.49-18.7Q106.39-17.75 106.14-16.98 105.89-16.2 105.74-15.2L105.74-15.2Q106.34-16.2 107.21-17.07 108.09-17.95 108.94-18.5L108.94-18.5Q109.39-18.7 109.71-18.65 110.04-18.6 110.26-18.38 110.49-18.15 110.59-17.82 110.69-17.5 110.74-17.25L110.74-17.25Q110.89-15.6 110.61-14.35 110.34-13.1 109.96-11.78 109.59-10.45 109.36-8.83 109.14-7.2 109.44-4.8L109.44-4.8Q109.69-3.05 110.49-1.65 111.29-0.25 112.49 0.1L112.49 0.1Q112.84 0.2 112.66 0.25 112.49 0.3 112.39 0.3L112.39 0.3Q111.49 0.2 110.69-0.4 109.89-1 109.26-1.9 108.64-2.8 108.24-3.9 107.84-5 107.79-6.1L107.79-6.1Q107.64-8.35 108.06-10.38 108.49-12.4 108.89-13.85L108.89-13.85Q108.99-14.25 109.11-14.88 109.24-15.5 109.21-15.95 109.19-16.4 108.89-16.48 108.59-16.55 107.89-15.9L107.89-15.9Q106.89-15 106.14-13.95 105.39-12.9 105.04-11.6L105.04-11.6Q103.89-7.45 101.74-3.65L101.74-3.65Q101.64-3.45 101.49-3.28 101.34-3.1 101.29-3.15L101.29-3.15Q101.19-3.15 101.24-3.4 101.29-3.65 101.34-3.9L101.34-3.9Q101.64-5.65 102.09-7.3 102.54-8.95 102.96-10.68 103.39-12.4 103.71-14.23 104.04-16.05 104.09-18.15L104.09-18.15Q103.99-18.85 103.81-19.6 103.64-20.35 102.79-21.35L102.79-21.35Q101.79-22.45 100.44-22.5 99.09-22.55 98.24-22.25L98.24-22.25Q97.69-22.1 97.06-21.7 96.44-21.3 95.91-20.75 95.39-20.2 95.06-19.48 94.74-18.75 94.89-17.9L94.89-17.9Q95.44-18.9 96.16-19.85 96.89-20.8 98.04-21.3L98.04-21.3Q98.39-21.45 98.94-21.58 99.49-21.7 100.09-21.73 100.69-21.75 101.29-21.55 101.89-21.35 102.34-20.8L102.34-20.8Q103.14-19.8 103.21-19 103.29-18.2 103.24-17.4L103.24-17.4Q103.14-15.95 102.79-14.68 102.44-13.4 101.89-12.25L101.89-12.25Q101.84-12.1 101.64-11.78 101.44-11.45 101.34-11.45L101.34-11.45Q101.24-11.5 101.21-11.88 101.19-12.25 101.29-12.4L101.29-12.4Q101.34-12.95 101.44-14.03 101.54-15.1 101.56-16.28 101.59-17.45 101.44-18.43 101.29-19.4 100.79-19.8L100.79-19.8Q100.34-20.15 99.44-20 98.54-19.85 97.84-19.3L97.84-19.3Q97.14-18.75 96.66-18.25 96.19-17.75 95.89-17.23 95.59-16.7 95.36-16.07 95.14-15.45 94.99-14.6L94.99-14.6Q95.59-15.75 96.39-16.75 97.19-17.75 98.34-18.45L98.34-18.45Q99.14-19 99.59-18.9 100.04-18.8 100.21-18.35 100.39-17.9 100.36-17.2 100.34-16.5 100.29-15.9L100.29-15.9Q100.19-15.1 100.04-14.25 99.89-13.4 99.69-12.65ZM113.99 0.1L113.99 0.1Q113.99 0.1 113.74 0.1L113.74 0.1Q113.64 0.1 113.49 0.05L113.49 0.05Q112.79-0.1 111.99-0.58 111.19-1.05 110.64-2.35L110.64-2.35Q110.44-2.85 110.34-3.65 110.24-4.45 110.24-5.2 110.24-5.95 110.34-6.5 110.44-7.05 110.64-7L110.64-7Q110.69-7 110.76-6.78 110.84-6.55 110.89-6.25 110.94-5.95 110.99-5.65 111.04-5.35 111.04-5.2L111.04-5.2Q111.14-4.5 111.29-3.83 111.44-3.15 111.69-2.6L111.69-2.6Q111.94-1.85 112.61-1.03 113.29-0.2 113.84-0.1L113.84-0.1Q114.09 0 113.99 0.1ZM100.54 0L100.54 0Q100.64 0.35 100.54 0.35L100.54 0.35Q100.29 0.35 100.14 0.1L100.14 0.1Q99.89-0.2 99.64-0.78 99.39-1.35 99.44-2.75L99.44-2.75Q99.44-3.3 99.54-4.08 99.64-4.85 99.76-5.53 99.89-6.2 100.04-6.65 100.19-7.1 100.39-7.05L100.39-7.05Q100.44-7.05 100.46-6.83 100.49-6.6 100.51-6.3 100.54-6 100.54-5.73 100.54-5.45 100.54-5.35L100.54-5.35Q100.54-4.55 100.49-3.93 100.44-3.3 100.44-2.6L100.44-2.6Q100.44-1.65 100.44-1 100.44-0.35 100.54 0ZM93.14-16.6L93.14-16.6Q92.59-14.7 91.66-12.85 90.74-11 90.14-9.3L90.14-9.3Q90.09-9.2 89.96-8.93 89.84-8.65 89.64-8.7L89.64-8.7Q89.54-8.75 89.51-9.03 89.49-9.3 89.49-9.45L89.49-9.45Q89.49-10.25 89.76-11.58 90.04-12.9 90.34-13.75L90.34-13.75Q90.44-14.05 90.71-15.28 90.99-16.5 91.21-17.95 91.44-19.4 91.51-20.75 91.59-22.1 91.24-22.7L91.24-22.7Q91.04-23.05 91.24-23.05L91.24-23.05Q91.39-23.05 91.64-22.8L91.64-22.8Q92.24-22.25 92.61-21.45 92.99-20.65 93.16-19.78 93.34-18.9 93.31-18.05 93.29-17.2 93.14-16.6ZM89.84 0.05L89.84 0.05Q88.29-1 87.46-2.25 86.64-3.5 86.34-4.85 86.04-6.2 86.11-7.6 86.19-9 86.49-10.35L86.49-10.35Q86.89-12.15 87.51-13.93 88.14-15.7 88.71-17.38 89.29-19.05 89.61-20.65 89.94-22.25 89.69-23.7L89.69-23.7Q89.69-23.9 89.74-23.9L89.74-23.9Q89.84-23.9 89.99-23.65L89.99-23.65Q90.89-22.05 90.84-20.35 90.79-18.65 90.29-16.88 89.79-15.1 89.06-13.28 88.34-11.45 87.94-9.6L87.94-9.6Q87.69-8.45 87.61-7.18 87.54-5.9 87.79-4.65 88.04-3.4 88.61-2.2 89.19-1 90.19-0.05L90.19-0.05Q90.39 0.05 90.29 0.15L90.29 0.15Q90.19 0.25 90.06 0.18 89.94 0.1 89.84 0.05ZM91.74 0.25L91.74 0.25Q91.59 0.35 91.34 0.1L91.34 0.1Q90.79-0.3 90.26-0.75 89.74-1.2 89.24-2.2L89.24-2.2Q89.04-2.55 88.94-3.1 88.84-3.65 88.84-4.17 88.84-4.7 88.91-5.05 88.99-5.4 89.14-5.4L89.14-5.4Q89.34-5.35 89.46-4.85 89.59-4.35 89.69-4.2L89.69-4.2Q89.89-3.65 90.04-3.18 90.19-2.7 90.39-2.25L90.39-2.25Q90.69-1.55 90.99-1.05 91.29-0.55 91.69-0.05L91.69-0.05Q91.74 0 91.79 0.1 91.84 0.2 91.74 0.25Z" opacity="1" transform="matrix(1,0,0,1,0,0)" fill="#7f8cd9" class="wordmark-text-0" data-fill-palette-color="primary" id="text-0"></path></svg></g></svg></g></svg></g></svg></g></svg></g></svg></g></svg></g><g><path d="M0 123.6c0-68.262 55.338-123.6 123.6-123.6 50.93 0 94.665 30.804 113.591 74.797l-3.887 0c-18.701-41.974-60.785-71.236-109.704-71.236-66.296 0-120.039 53.743-120.039 120.039 0 66.296 53.743 120.039 120.039 120.039 48.918 0 91.002-29.261 109.704-71.236h3.887c-18.926 43.993-62.661 74.797-113.591 74.797-68.262 0-123.6-55.338-123.6-123.6z" fill="#7f8cd9" stroke="transparent" data-fill-palette-color="tertiary"></path></g></svg></g><defs></defs></svg><rect width="395.52" height="247.2" fill="none" stroke="none" visibility="hidden"></rect></g></svg></g></svg>